<?xml version="1.0" standalone="no"?>
<!DOCTYPE svg PUBLIC "-//W3C//DTD SVG 20010904//EN"
 "http://www.w3.org/TR/2001/REC-SVG-20010904/DTD/svg10.dtd">
<svg version="1.0" xmlns="http://www.w3.org/2000/svg"
 width="300.000000pt" height="300.000000pt" viewBox="0 0 300.000000 300.000000"
 preserveAspectRatio="xMidYMid meet">
<metadata>
Created by potrace 1.16, written by Peter Selinger 2001-2019
</metadata>
<g transform="translate(0.000000,300.000000) scale(0.100000,-0.100000)"
fill="#000000" stroke="none">
<path d="M843 2628 l-643 -371 0 -757 0 -757 644 -372 c354 -204 649 -371 656
-371 7 0 302 167 656 371 l644 372 0 757 0 757 -644 372 c-354 204 -650 371
-657 371 -8 0 -303 -168 -656 -372z m1218 -189 l539 -311 0 -628 0 -628 -542
-313 c-299 -172 -550 -313 -558 -313 -8 0 -259 141 -557 313 l-543 313 0 628
0 628 548 316 c301 174 553 314 561 311 8 -3 256 -145 552 -316z"/>
<path d="M1017 2328 l-467 -271 0 -557 0 -557 471 -272 c259 -149 477 -271
484 -271 7 0 225 122 484 271 l471 272 0 557 0 557 -471 272 c-259 149 -479
271 -488 270 -9 0 -226 -122 -484 -271z m683 -623 l-195 -195 -195 195 -195
195 195 195 195 195 195 -195 195 -195 -195 -195z"/>
<path d="M1395 2000 l-100 -100 103 -103 102 -102 102 102 103 103 -100 100
c-55 55 -102 100 -105 100 -3 0 -50 -45 -105 -100z"/>
</g>
</svg>
