<!DOCTYPE svg PUBLIC "-//W3C//DTD SVG 20010904//EN" "http://www.w3.org/TR/2001/REC-SVG-20010904/DTD/svg10.dtd">
<svg version="1.0" xmlns="http://www.w3.org/2000/svg" width="300px" height="300px" viewBox="0 0 3000 3000" preserveAspectRatio="xMidYMid meet">
<g id="layer101" fill="#000000" stroke="none">
 <path d="M795 2200 l-700 -700 703 -703 702 -702 702 702 703 703 -700 700 c-385 385 -702 700 -705 700 -3 0 -320 -315 -705 -700z m1265 -145 l555 -555 -558 -558 -557 -557 -557 557 -558 558 555 555 c305 305 557 555 560 555 3 0 255 -250 560 -555z"/>
 <path d="M1045 1950 l-450 -450 453 -453 452 -452 452 452 453 453 -450 450 c-247 247 -452 450 -455 450 -3 0 -208 -203 -455 -450z m605 -605 l145 -145 -148 -148 -147 -147 -147 147 -148 148 145 145 c80 80 147 145 150 145 3 0 70 -65 150 -145z"/>
 <path d="M1427 1282 l-77 -77 78 -78 77 -77 78 78 77 77 -78 78 -77 77 -78 -78z"/>
 <path d="M195 2800 l-70 -70 153 -153 152 -152 72 73 73 72 -150 150 c-82 82 -152 150 -155 150 -3 0 -37 -32 -75 -70z"/>
 <path d="M2575 2720 l-150 -150 73 -72 72 -73 152 152 153 153 -70 70 c-38 38 -72 70 -75 70 -3 0 -73 -68 -155 -150z"/>
 <path d="M575 2420 l-200 -200 73 -72 72 -73 202 202 203 203 -70 70 c-38 38 -72 70 -75 70 -3 0 -95 -90 -205 -200z"/>
 <path d="M2145 2550 l-70 -70 203 -203 202 -202 72 73 73 72 -200 200 c-110 110 -202 200 -205 200 -3 0 -37 -32 -75 -70z"/>
 <path d="M445 850 l-70 -70 203 -203 202 -202 72 73 73 72 -200 200 c-110 110 -202 200 -205 200 -3 0 -37 -32 -75 -70z"/>
 <path d="M2275 720 l-200 -200 73 -72 72 -73 202 202 203 203 -70 70 c-38 38 -72 70 -75 70 -3 0 -95 -90 -205 -200z"/>
 <path d="M275 420 l-150 -150 73 -72 72 -73 152 152 153 153 -70 70 c-38 38 -72 70 -75 70 -3 0 -73 -68 -155 -150z"/>
 <path d="M2495 500 l-70 -70 153 -153 152 -152 72 73 73 72 -150 150 c-82 82 -152 150 -155 150 -3 0 -37 -32 -75 -70z"/>
 </g>

</svg>